<?xml version="1.0" encoding="utf-8"?>
<!-- Generator: Adobe Illustrator 19.0.0, SVG Export Plug-In . SVG Version: 6.00 Build 0)  -->
<svg version="1.1" id="Layer_1" xmlns="http://www.w3.org/2000/svg" xmlns:xlink="http://www.w3.org/1999/xlink" x="0px" y="0px"
	 viewBox="0 0 754.5 153" style="enable-background:new 0 0 754.5 153;" xml:space="preserve">
<style type="text/css">
	.st0{fill:#1466B1;}
	.st1{fill:#EE3239;}
	.st2{fill:#EE2E3B;}
	.st3{fill:none;}
</style>
<g id="XMLID_2_">
	<path id="XMLID_17_" class="st0" d="M238.6,36.4h-60.4v24.2h55.4v19.8h-55.4v29.3h63.2v20.5h-86.5V16.2h83.7V36.4z"/>
	<path id="XMLID_15_" class="st0" d="M297.1,44c0.3,0,0.9,0.1,1.9,0.1v22.6c-1.4-0.2-2.6-0.3-3.7-0.3c-1.1-0.1-2-0.1-2.6-0.1
		c-8.9,0-14.8,2.9-17.9,8.7c-1.7,3.3-2.6,8.3-2.6,15v40.3H250V45.9h21.1v14.7c3.4-5.6,6.4-9.5,8.9-11.5c4.1-3.5,9.5-5.2,16.1-5.2
		C296.5,43.9,296.9,43.9,297.1,44z"/>
	<path id="XMLID_12_" class="st0" d="M374.4,120c-7.1,8.8-17.9,13.2-32.4,13.2s-25.3-4.4-32.4-13.2c-7.1-8.8-10.7-19.4-10.7-31.7
		c0-12.2,3.6-22.7,10.7-31.6c7.1-8.9,17.9-13.4,32.4-13.4s25.3,4.5,32.4,13.4c7.1,8.9,10.7,19.5,10.7,31.6
		C385.1,100.6,381.5,111.2,374.4,120z M356.8,107.8c3.5-4.6,5.2-11.1,5.2-19.6c0-8.5-1.7-15-5.2-19.5c-3.5-4.6-8.4-6.8-14.9-6.8
		c-6.5,0-11.4,2.3-14.9,6.8c-3.5,4.6-5.2,11.1-5.2,19.5c0,8.5,1.7,15,5.2,19.6c3.5,4.6,8.4,6.9,14.9,6.9
		C348.3,114.7,353.3,112.4,356.8,107.8z"/>
	<path id="XMLID_10_" class="st1" d="M394.3,16.2h25l45.3,79.6V16.2h22.2v114.1H463l-46.4-81v81h-22.2V16.2z"/>
	<path id="XMLID_8_" class="st1" d="M499.3,16.6H521v61.6l27.8-31.8h27.4L546,77.8l31.4,52.6h-26.8l-20.4-36l-9.1,9.5v26.6h-21.7
		V16.6z"/>
	<path id="XMLID_5_" class="st1" d="M613.2,79c4.1-0.5,7-1.2,8.8-1.9c3.2-1.3,4.8-3.4,4.8-6.3c0-3.5-1.2-5.8-3.6-7.2
		c-2.4-1.3-6-2-10.7-2c-5.3,0-9,1.3-11.2,3.9c-1.6,1.9-2.6,4.5-3.1,7.7h-21.3c0.5-7.4,2.5-13.4,6.2-18.2
		c5.9-7.4,15.9-11.1,30.2-11.1c9.3,0,17.5,1.8,24.7,5.5c7.2,3.7,10.8,10.6,10.8,20.7v38.7c0,2.7,0.1,5.9,0.2,9.8
		c0.2,2.9,0.6,4.9,1.3,5.9c0.7,1,1.8,1.9,3.2,2.6v3.3h-24c-0.7-1.7-1.1-3.3-1.4-4.8c-0.3-1.5-0.5-3.2-0.6-5.1
		c-3.1,3.3-6.6,6.1-10.6,8.4c-4.8,2.7-10.2,4.1-16.2,4.1c-7.7,0-14-2.2-19-6.5c-5-4.4-7.5-10.5-7.5-18.5c0-10.4,4-17.9,12.1-22.5
		c4.4-2.5,10.9-4.3,19.5-5.4L613.2,79z M626.7,89.3c-1.4,0.9-2.8,1.6-4.3,2.1c-1.4,0.5-3.4,1-5.9,1.5l-5,0.9
		c-4.7,0.8-8.1,1.8-10.1,3c-3.5,2-5.2,5.1-5.2,9.4c0,3.8,1.1,6.5,3.2,8.2c2.1,1.7,4.7,2.5,7.7,2.5c4.8,0,9.3-1.4,13.3-4.2
		c4.1-2.8,6.2-7.9,6.3-15.2V89.3z"/>
	<path id="XMLID_3_" class="st1" d="M728,50.8c5.5,4.6,8.3,12.1,8.3,22.7v56.8h-22.6V79c0-4.4-0.6-7.8-1.8-10.2
		c-2.2-4.3-6.3-6.5-12.3-6.5c-7.4,0-12.5,3.2-15.3,9.5c-1.4,3.4-2.2,7.6-2.2,12.8v45.7h-22.1V46.1h21.4v12.3c2.8-4.3,5.5-7.5,8-9.4
		c4.5-3.4,10.3-5.1,17.2-5.1C715.4,43.9,722.5,46.2,728,50.8z"/>
</g>
<polygon id="XMLID_24_" class="st2" points="46.8,130.8 22.3,130.8 65.2,16.2 89.9,16.2 "/>
<rect id="XMLID_25_" x="14.4" y="16.2" class="st3" width="102.8" height="114.1"/>
<polygon id="XMLID_23_" class="st0" points="71.3,130.8 46.8,130.8 89.7,16.2 114.4,16.2 "/>
</svg>
