<?xml version="1.0" encoding="utf-8"?>
<!-- Generator: Adobe Illustrator 16.0.0, SVG Export Plug-In . SVG Version: 6.00 Build 0)  -->
<!DOCTYPE svg PUBLIC "-//W3C//DTD SVG 1.1//EN" "http://www.w3.org/Graphics/SVG/1.1/DTD/svg11.dtd">
<svg version="1.1" id="Layer_1" xmlns="http://www.w3.org/2000/svg" xmlns:xlink="http://www.w3.org/1999/xlink" x="0px" y="0px"
	 width="171.343px" height="25.386px" viewBox="0 0 171.343 25.386" enable-background="new 0 0 171.343 25.386"
	 xml:space="preserve">
<g>
	<path fill="#1D2D5A" d="M15.806,2.886h-6.27v16.978H6.24V2.886H0V0h15.806V2.886z"/>
	<path fill="#1D2D5A" d="M24.565,20.2c-1.143,0-2.163-0.174-3.062-0.52c-0.898-0.348-1.655-0.846-2.271-1.494
		c-0.615-0.65-1.084-1.441-1.406-2.373c-0.322-0.934-0.483-1.985-0.483-3.157s0.161-2.222,0.483-3.149s0.786-1.714,1.392-2.358
		s1.338-1.138,2.197-1.479s1.831-0.513,2.915-0.513c1.064,0,2.026,0.164,2.886,0.491s1.594,0.808,2.205,1.443
		c0.609,0.635,1.078,1.416,1.406,2.344c0.326,0.928,0.49,1.992,0.49,3.193v0.762H20.668c0.039,0.791,0.166,1.472,0.381,2.044
		c0.215,0.57,0.495,1.042,0.843,1.413c0.346,0.371,0.749,0.647,1.208,0.827c0.459,0.182,0.957,0.271,1.494,0.271
		c0.4,0,0.784-0.044,1.149-0.132c0.367-0.088,0.696-0.228,0.989-0.417c0.293-0.191,0.539-0.436,0.739-0.732
		c0.2-0.299,0.33-0.662,0.389-1.092h3.149c-0.117,0.742-0.358,1.401-0.726,1.978c-0.365,0.576-0.83,1.06-1.391,1.45
		c-0.563,0.391-1.209,0.688-1.941,0.894S25.424,20.2,24.565,20.2z M28.022,11.221c-0.088-0.684-0.237-1.27-0.446-1.758
		c-0.211-0.488-0.475-0.891-0.791-1.208c-0.318-0.317-0.685-0.552-1.1-0.703s-0.866-0.227-1.354-0.227
		c-0.938,0-1.731,0.322-2.38,0.967c-0.65,0.645-1.058,1.621-1.224,2.93H28.022z"/>
	<path fill="#1D2D5A" d="M40.225,20.2c-1.074,0-2.041-0.168-2.9-0.506c-0.859-0.336-1.592-0.824-2.197-1.465
		c-0.605-0.639-1.072-1.428-1.399-2.365s-0.49-2.007-0.49-3.208c0-1.191,0.163-2.251,0.49-3.179s0.794-1.711,1.399-2.351
		s1.338-1.128,2.197-1.465s1.826-0.505,2.9-0.505c0.83,0,1.594,0.105,2.292,0.315s1.309,0.52,1.832,0.93
		c0.521,0.41,0.946,0.918,1.273,1.523s0.535,1.304,0.623,2.095h-3.091c-0.029-0.381-0.124-0.723-0.286-1.025
		c-0.16-0.303-0.371-0.562-0.629-0.776c-0.26-0.215-0.563-0.378-0.908-0.491c-0.348-0.112-0.716-0.168-1.106-0.168
		c-0.547,0-1.048,0.105-1.501,0.315c-0.455,0.21-0.843,0.527-1.165,0.952s-0.574,0.957-0.755,1.597s-0.271,1.384-0.271,2.234
		c0,0.869,0.09,1.624,0.271,2.263c0.181,0.641,0.433,1.175,0.755,1.604s0.71,0.749,1.165,0.96c0.453,0.209,0.954,0.314,1.501,0.314
		c0.391,0,0.757-0.057,1.099-0.168c0.342-0.113,0.645-0.276,0.908-0.491s0.477-0.474,0.637-0.776
		c0.162-0.303,0.257-0.645,0.286-1.025h3.091c-0.098,0.781-0.311,1.475-0.637,2.08c-0.328,0.605-0.75,1.113-1.268,1.523
		s-1.126,0.723-1.824,0.938S41.055,20.2,40.225,20.2z"/>
	<path fill="#1D2D5A" d="M51.708,3.604c0,0.635-0.005,1.257-0.015,1.868s-0.015,1.218-0.015,1.824
		c1.309-1.426,2.769-2.139,4.38-2.139c3.242,0,4.863,1.763,4.863,5.288v9.419h-3.208v-9.185c0-0.527-0.042-0.977-0.125-1.348
		s-0.217-0.674-0.402-0.908s-0.428-0.405-0.725-0.513c-0.299-0.107-0.662-0.161-1.092-0.161c-0.615,0-1.226,0.159-1.831,0.476
		s-1.216,0.837-1.831,1.56v10.078H48.5V0h3.208V3.604z"/>
	<path fill="#1D2D5A" d="M72.832,20.2c-1.152,0-2.151-0.105-2.996-0.314c-0.845-0.211-1.563-0.504-2.152-0.879
		c-0.592-0.377-1.072-0.83-1.443-1.363c-0.371-0.531-0.659-1.12-0.864-1.765s-0.345-1.335-0.417-2.073
		c-0.074-0.736-0.11-1.506-0.11-2.307V0h3.311v11.499c0,1.084,0.093,1.997,0.278,2.739s0.469,1.341,0.85,1.794
		c0.381,0.455,0.864,0.781,1.45,0.982c0.586,0.199,1.284,0.3,2.095,0.3c0.771,0,1.447-0.088,2.029-0.264
		c0.58-0.176,1.066-0.483,1.457-0.923s0.684-1.035,0.879-1.787s0.293-1.699,0.293-2.842V0h3.296v11.499
		c0,0.693-0.027,1.389-0.081,2.088c-0.054,0.697-0.171,1.369-0.352,2.014s-0.446,1.248-0.798,1.809
		c-0.352,0.563-0.82,1.048-1.406,1.458s-1.313,0.735-2.183,0.974C75.097,20.081,74.052,20.2,72.832,20.2z"/>
	<path fill="#1D2D5A" d="M87.919,7.236c0.576-0.664,1.221-1.177,1.934-1.538s1.471-0.542,2.271-0.542
		c0.928,0,1.752,0.176,2.475,0.527s1.33,0.852,1.824,1.501c0.492,0.649,0.869,1.431,1.127,2.344c0.26,0.913,0.389,1.926,0.389,3.04
		c0,1.074-0.129,2.075-0.389,3.003c-0.258,0.928-0.641,1.736-1.148,2.424c-0.508,0.689-1.141,1.229-1.898,1.619
		c-0.756,0.391-1.633,0.586-2.629,0.586c-0.791,0-1.506-0.115-2.146-0.344c-0.639-0.23-1.232-0.589-1.779-1.077
		c0.02,0.459,0.029,0.886,0.029,1.282c0,0.395,0,0.798,0,1.208v4.116H84.77V5.493h3.149V7.236z M87.978,16.289
		c0.498,0.498,1.023,0.874,1.574,1.128c0.553,0.254,1.146,0.381,1.781,0.381c1.045,0,1.857-0.432,2.438-1.297
		c0.582-0.863,0.873-2.165,0.873-3.903c0-1.66-0.273-2.91-0.82-3.75s-1.324-1.26-2.33-1.26c-0.645,0-1.26,0.193-1.846,0.579
		s-1.143,0.945-1.67,1.677V16.289z"/>
	<path fill="#1D2D5A" d="M125.36,19.863H112.72V0h3.311v16.978h9.33V19.863z"/>
	<path fill="#1D2D5A" d="M137.169,18.486c-1.289,1.143-2.936,1.714-4.938,1.714c-0.674,0-1.313-0.09-1.918-0.271
		c-0.605-0.18-1.137-0.446-1.59-0.798c-0.455-0.352-0.813-0.786-1.076-1.304s-0.396-1.118-0.396-1.802
		c0-1.68,0.721-2.935,2.16-3.765c1.441-0.83,3.607-1.245,6.498-1.245h1.23c0-0.43-0.008-0.808-0.023-1.135
		c-0.014-0.327-0.045-0.588-0.094-0.784c-0.117-0.498-0.357-0.889-0.719-1.172c-0.459-0.4-1.221-0.601-2.285-0.601
		c-1.025,0-1.807,0.188-2.344,0.564s-0.814,0.95-0.834,1.721h-3.063c0.186-2.969,2.32-4.453,6.402-4.453
		c0.967,0,1.818,0.083,2.555,0.249c0.738,0.166,1.395,0.444,1.971,0.835c0.557,0.371,0.973,0.891,1.246,1.56s0.41,1.589,0.41,2.761
		v9.302h-3.193V18.486z M137.14,13.081h-1.553c-1.67,0-2.928,0.225-3.773,0.674c-0.844,0.449-1.266,1.147-1.266,2.095
		c0,0.693,0.248,1.216,0.746,1.567s1.168,0.527,2.008,0.527c0.381,0,0.758-0.044,1.135-0.132c0.375-0.088,0.73-0.212,1.063-0.374
		c0.332-0.16,0.637-0.355,0.914-0.586c0.279-0.229,0.521-0.485,0.727-0.769V13.081z"/>
	<path fill="#1D2D5A" d="M147.216,3.604c0,0.586-0.004,1.187-0.014,1.802s-0.016,1.216-0.016,1.802
		c0.557-0.645,1.191-1.147,1.904-1.509s1.471-0.542,2.271-0.542c0.928,0,1.752,0.176,2.475,0.527s1.33,0.852,1.824,1.501
		c0.492,0.649,0.869,1.431,1.127,2.344c0.26,0.913,0.389,1.926,0.389,3.04c0,1.152-0.139,2.192-0.418,3.12
		c-0.277,0.928-0.68,1.721-1.207,2.381c-0.527,0.658-1.166,1.166-1.912,1.523c-0.748,0.355-1.59,0.534-2.527,0.534
		c-0.811,0-1.533-0.104-2.168-0.315c-0.635-0.209-1.23-0.563-1.787-1.062v1.113h-3.148V0h3.207V3.604z M147.216,16.289
		c0.498,0.498,1.023,0.874,1.574,1.128c0.553,0.254,1.146,0.381,1.781,0.381c1.045,0,1.857-0.432,2.438-1.297
		c0.582-0.863,0.873-2.165,0.873-3.903c0-1.66-0.273-2.91-0.82-3.75s-1.324-1.26-2.33-1.26c-0.645,0-1.26,0.193-1.846,0.579
		s-1.143,0.945-1.67,1.677V16.289z"/>
	<path fill="#1D2D5A" d="M165.337,20.2c-2.051,0-3.598-0.389-4.637-1.164c-1.041-0.777-1.613-1.932-1.721-3.465h3.09
		c0.029,1.641,1.109,2.461,3.238,2.461c0.947,0,1.674-0.193,2.182-0.578c0.508-0.387,0.762-0.872,0.762-1.458
		c0-0.381-0.127-0.69-0.381-0.931c-0.254-0.238-0.59-0.441-1.01-0.607s-0.896-0.313-1.43-0.439c-0.531-0.127-1.076-0.264-1.633-0.41
		s-1.102-0.32-1.633-0.52c-0.533-0.201-1.008-0.459-1.428-0.777c-0.42-0.317-0.758-0.708-1.012-1.171s-0.381-1.038-0.381-1.721
		c0-0.625,0.129-1.199,0.389-1.721c0.258-0.522,0.629-0.972,1.113-1.348c0.482-0.376,1.074-0.669,1.771-0.879
		c0.699-0.21,1.488-0.315,2.367-0.315c1.943,0,3.404,0.347,4.387,1.04c0.98,0.693,1.496,1.719,1.545,3.076h-3.047
		c-0.078-1.299-1-1.948-2.768-1.948c-0.371,0-0.721,0.039-1.049,0.117c-0.326,0.078-0.609,0.19-0.85,0.337
		c-0.238,0.146-0.426,0.33-0.563,0.549s-0.205,0.466-0.205,0.74c0,0.244,0.033,0.454,0.102,0.63s0.227,0.339,0.477,0.491
		c0.248,0.151,0.615,0.303,1.098,0.454c0.484,0.151,1.137,0.325,1.957,0.52c0.928,0.244,1.725,0.486,2.395,0.725
		c0.668,0.239,1.215,0.522,1.641,0.85c0.424,0.326,0.736,0.717,0.938,1.172c0.199,0.453,0.301,1.018,0.301,1.691
		c0,0.664-0.127,1.277-0.381,1.838c-0.254,0.563-0.633,1.048-1.137,1.458c-0.502,0.41-1.127,0.729-1.875,0.96
		C167.204,20.085,166.333,20.2,165.337,20.2z"/>
</g>
</svg>
